# xmcd
#
# Track frame offsets:
#	182
#	18697
#	36950
#	52392
#	71342
#	90170
#	103367
#	119267
#	134567
#	150595
#
# Disc length: 2215 seconds
# Revision: 4
# Processed by: cddbd v1.5.2PL0 Copyright (c) Steve Scherf et al.
# Submitted via: dBpowerAMP V12.0
#
DISCID=8b08a50a
DTITLE=Juice Newton - Greatest Country Hits
DYEAR=1990
DGENRE=Country
TTITLE0=The Sweetest Thing (I've Ever Known)
TTITLE1=Break It To Me Gently
TTITLE2=Queen Of Hearts
TTITLE3=Angel Of The Morning
TTITLE4=Heart Of The Night
TTITLE5=Sunshine
TTITLE6=Ride 'Em Cowboy
TTITLE7=Stranger At My Door
TTITLE8=Lay Back In The Arms Of Someone
TTITLE9=It's A Heartache
EXTD=
EXTT0=
EXTT1=
EXTT2=
EXTT3=
EXTT4=
EXTT5=
EXTT6=
EXTT7=
EXTT8=
EXTT9=
PLAYORDER=
